<?xml version="1.0" encoding="utf-8"?>
<!-- Generator: Adobe Illustrator 27.1.1, SVG Export Plug-In . SVG Version: 6.00 Build 0)  -->
<svg version="1.1" id="Livello_1" xmlns="http://www.w3.org/2000/svg" xmlns:xlink="http://www.w3.org/1999/xlink" x="0px" y="0px"
	 viewBox="0 0 1366 2294.6" style="enable-background:new 0 0 1366 2294.6;" xml:space="preserve">
<style type="text/css">
	.st0{clip-path:url(#SVGID_00000049185097383688864120000003017314132906325892_);fill:#666666;}
	.st1{clip-path:url(#SVGID_00000049185097383688864120000003017314132906325892_);fill:#FFFA72;}
	.st2{clip-path:url(#SVGID_00000049185097383688864120000003017314132906325892_);fill:#151515;}
	.st3{clip-path:url(#SVGID_00000049185097383688864120000003017314132906325892_);fill:#1A1A1A;}
	.st4{clip-path:url(#SVGID_00000049185097383688864120000003017314132906325892_);fill:#1E1E1E;}
	.st5{clip-path:url(#SVGID_00000049185097383688864120000003017314132906325892_);fill:#222222;}
	.st6{clip-path:url(#SVGID_00000049185097383688864120000003017314132906325892_);fill:#262626;}
	.st7{clip-path:url(#SVGID_00000049185097383688864120000003017314132906325892_);fill:#2B2B2B;}
	.st8{clip-path:url(#SVGID_00000049185097383688864120000003017314132906325892_);fill:#2F2F2F;}
	.st9{clip-path:url(#SVGID_00000049185097383688864120000003017314132906325892_);fill:#333333;}
	.st10{clip-path:url(#SVGID_00000049185097383688864120000003017314132906325892_);fill:#373737;}
	.st11{clip-path:url(#SVGID_00000049185097383688864120000003017314132906325892_);fill:#3C3C3C;}
	.st12{clip-path:url(#SVGID_00000049185097383688864120000003017314132906325892_);fill:#404040;}
	.st13{clip-path:url(#SVGID_00000049185097383688864120000003017314132906325892_);fill:#444444;}
</style>
<g>
	<defs>
		<rect id="SVGID_1_" x="-20" y="-34.9" width="1427.2" height="2336.4"/>
	</defs>
	<clipPath id="SVGID_00000072252843190368945390000004375712101273178044_">
		<use xlink:href="#SVGID_1_"  style="overflow:visible;"/>
	</clipPath>
	
		<rect x="-20" y="-34.9" style="clip-path:url(#SVGID_00000072252843190368945390000004375712101273178044_);fill:#666666;" width="1427.2" height="2336.4"/>
	<path style="clip-path:url(#SVGID_00000072252843190368945390000004375712101273178044_);fill:#FFFA72;" d="M611.9,421.1
		c-24,54.6-19.5,88.9,13.6,102.8c49.6,20.8,167.5,29.1,216.8,74.3s199.6,10.3,225.3-67.2s72-197-172.1-197
		C732.8,334,638.3,363,611.9,421.1L611.9,421.1z"/>
	<path style="clip-path:url(#SVGID_00000072252843190368945390000004375712101273178044_);fill:#151515;" d="M258.8,527.1
		c16.2,153.6-15.1,345.6,98.6,384.5c170.7,58.5,117.5,19.3,324.4,146.2s1579.3,194.2,1020.7-222c-37.2-175,76.8-765.6-292.7-857.5
		c-90.3-22.5-487-9.3-621.2-9.3C333.1-31.1,244.1,363.9,258.8,527.1L258.8,527.1z"/>
	<path style="clip-path:url(#SVGID_00000072252843190368945390000004375712101273178044_);fill:#1A1A1A;" d="M266.9,520
		c7.6,144.9,2.3,312.2,108,348.9c158.5,55.2,166.9,30.6,356.4,150.3c174.1,78.4,919.2-2.7,886.4-208
		c51-731.8-113.7-823.2-760.5-823.2C426.1-12.1,261.3,366.2,266.9,520L266.9,520z"/>
	<path style="clip-path:url(#SVGID_00000072252843190368945390000004375712101273178044_);fill:#1E1E1E;" d="M312.4,511.1
		c0.2,136.6,20.7,267.2,118.6,301.9c146.9,52.1,180.2,63.8,353.2,176.8c172.9,112.9,809.5-10.2,788.4-203.9
		c-9.8-612.6-103.2-738-713.3-738C452.6,47.6,314.5,365.8,312.4,511.1L312.4,511.1z"/>
	<path style="clip-path:url(#SVGID_00000072252843190368945390000004375712101273178044_);fill:#222222;" d="M340.2,502
		c-6.1,128.5,33.7,250.2,124.2,282.9c135.7,48.9,209.6,77.8,367,183.9s691.6-26.5,680.7-208.6c-14.8-416.5-63-662.6-636.6-662.6
		C493.2,97.6,348.9,365.6,340.2,502L340.2,502z"/>
	<path style="clip-path:url(#SVGID_00000072252843190368945390000004375712101273178044_);fill:#262626;" d="M368.5,493.1
		c-11.5,120.3,53.3,232,136.6,262.6c124.8,45.8,211.7,88.3,354.3,187.7s596.9-38,594.8-208.6c0-258.6-41.7-584.7-578.6-584.7
		C517.6,150,382.7,365.3,368.5,493.1L368.5,493.1z"/>
	<path style="clip-path:url(#SVGID_00000072252843190368945390000004375712101273178044_);fill:#2B2B2B;" d="M397.4,487
		c-15.8,112,24.1,203.7,100.3,232.1c114.4,42.7,274.9,86.2,377.8,193.8c128.6,92.5,517.7-41.8,523.1-200.7
		c7.8-175.9-22.8-512.2-523.1-512.2C542,199.9,416.1,367.9,397.4,487L397.4,487z"/>
	<path style="clip-path:url(#SVGID_00000072252843190368945390000004375712101273178044_);fill:#2F2F2F;" d="M427.6,494.2
		c-19.3,103.9,5.8,169,75.3,195.4c104.3,39.6,292.5,96,407.9,181.8s432.6,8.9,435.6-168.4c11.5-147.3,28.2-461.6-435.6-461.6
		C601.6,241.4,449.8,383.9,427.6,494.2L427.6,494.2z"/>
	<path style="clip-path:url(#SVGID_00000072252843190368945390000004375712101273178044_);fill:#333333;" d="M456.5,466.1
		c-22,95.6-1.5,155.6,61.5,179.9c94.4,36.4,276.4,85.5,379.2,164.5c266.7,152.1,380.6-16.5,397.1-152.1
		c16.6-135.7,43.5-381.6-383.6-381.6C626,276.7,481.5,364.4,456.5,466.1L456.5,466.1z"/>
	<path style="clip-path:url(#SVGID_00000072252843190368945390000004375712101273178044_);fill:#373737;" d="M486.8,457.1
		c-23.8,87.5-7.4,142.3,49.2,164.5C620.8,655,784.7,684.7,875.6,757c242.7,146.2,349.2,0,369.7-124c20.5-124,55.9-325.6-334.6-325.6
		C650.4,307.2,513.6,364.1,486.8,457.1L486.8,457.1z"/>
	<path style="clip-path:url(#SVGID_00000072252843190368945390000004375712101273178044_);fill:#3C3C3C;" d="M517.5,448.1
		c-24.9,79.3-12.2,128.9,38.3,149c75.7,30.2,240.2,52.8,319.8,118.3c193.9,123.1,299.2,4.3,322.5-108s68.9-285.6-285-285.6
		C677.2,321.8,545.3,363.9,517.5,448.1L517.5,448.1z"/>
	<path style="clip-path:url(#SVGID_00000072252843190368945390000004375712101273178044_);fill:#404040;" d="M548.6,439.1
		c-25.3,71-15.7,115.6,28.8,133.6c66.7,27.1,220.9,37.9,289.8,96.6c141.4,105.8,260.6,13.3,285.6-87.4
		c25.1-100.8,72.4-256-244.8-256C696.4,325.9,576.7,363.6,548.6,439.1L548.6,439.1z"/>
	<path style="clip-path:url(#SVGID_00000072252843190368945390000004375712101273178044_);fill:#444444;" d="M580,430.1
		c-25,62.9-18.1,102.3,20.5,118.2c58,23.9,194.1,33.5,252.9,85.5c58.9,51.9,230,11.8,255.9-77.3C1135.2,467.3,1182.6,330,902,330
		C715,330,607.6,363.3,580,430.1L580,430.1z"/>
	<path style="clip-path:url(#SVGID_00000072252843190368945390000004375712101273178044_);fill:#FFFA72;" d="M324.7,1837.3
		c34.7,53,132.4,66,293.1,39.1c241-40.5,177.6-150.7,140.8-223.1c-36.9-72.3-190.5-81.8-232.5-29.1c-42,52.8-157.3,80.5-203.2,109.3
		C292.4,1752.7,292.9,1787.3,324.7,1837.3L324.7,1837.3z"/>
	<path style="clip-path:url(#SVGID_00000072252843190368945390000004375712101273178044_);fill:#151515;" d="M-39.7,1791.2
		c-197.8,604.3,240.3,650.8,690.4,575.3c132.6-22.2,381-224.4,446.4-290.2c275-276.8,261.5-595.5,316.9-824.2
		c355.1-179.7-928.4-214.8-1114.1-55.2C114.2,1356.4,160.9,1309,0.9,1395C-105.7,1452.3-46.3,1636.7-39.7,1791.2L-39.7,1791.2z"/>
	<path style="clip-path:url(#SVGID_00000072252843190368945390000004375712101273178044_);fill:#1A1A1A;" d="M-12.4,1793.7
		c-61.8,369.6,87.6,584.2,513.5,512.8c638.8-107.2,784.6-623.8,777.7-1024.2c2.1-208.4-745.9-164.9-906.3-58.7
		C203,1373.2,191.1,1350.4,42.7,1431.2C-56.3,1485-26.3,1649.4-12.4,1793.7L-12.4,1793.7z"/>
	<path style="clip-path:url(#SVGID_00000072252843190368945390000004375712101273178044_);fill:#1E1E1E;" d="M15.7,1798.1
		c23.5,143,16.9,501.5,418.7,434.1c602.6-101,820.2-576.3,785.5-914.2c-7.9-194.8-654.7-211-808.9-70.8
		c-154.1,140.2-185.3,157.4-322.7,233.1C-3.4,1530.8-4.3,1663.1,15.7,1798.1L15.7,1798.1z"/>
	<path style="clip-path:url(#SVGID_00000072252843190368945390000004375712101273178044_);fill:#222222;" d="M44.4,1802.3
		c28.8,133.4,53.7,422.5,431.3,359.2c566.4-95,735.1-570.8,688-808.4c-16.1-181.6-563.4-224.1-703.2-93.3s-208.5,171.7-335.3,242.6
		C40.8,1549.7,19.4,1676.5,44.4,1802.3L44.4,1802.3z"/>
	<path style="clip-path:url(#SVGID_00000072252843190368945390000004375712101273178044_);fill:#262626;" d="M73.8,1806.6
		c32.9,123.8,91.1,332.7,444.6,273.4c530.3-88.9,589-382.2,592-692c-23.2-168.8-492.1-229.2-618.3-107.4
		c-126.3,121.8-205.7,178.1-322.3,244.1C92.2,1568.5,44.7,1689.7,73.8,1806.6L73.8,1806.6z"/>
	<path style="clip-path:url(#SVGID_00000072252843190368945390000004375712101273178044_);fill:#2B2B2B;" d="M103.1,1807.8
		c36,114.5,114.9,244.5,444.4,189.2c494.1-82.9,553-395.9,511.3-577.6c-28.8-156-433-224.3-546.3-111.5
		c-85.7,123.2-237.9,192.8-344.5,253.9C96.8,1602.6,70.9,1699.8,103.1,1807.8L103.1,1807.8z"/>
	<path style="clip-path:url(#SVGID_00000072252843190368945390000004375712101273178044_);fill:#2F2F2F;" d="M131.9,1795.6
		c38.3,105.3,150.5,196.7,455.9,145.4c458-76.8,472.5-301.5,420.7-503.8c-29.2-174.6-353.8-198-455.1-94.1
		c-101.3,103.9-279,190.8-376,247.1C112.6,1627.8,97.4,1696.2,131.9,1795.6L131.9,1795.6z"/>
	<path style="clip-path:url(#SVGID_00000072252843190368945390000004375712101273178044_);fill:#333333;" d="M164.7,1818.6
		c39.6,96.3,186.3,144.1,467.6,96.9c421.9-70.8,376.2-292.8,331.5-425.6c-36.5-131.2-173.7-279-414.7-84.5
		c-89.9,95.1-262.4,173.7-350.3,225.3C140.2,1665.1,128.8,1727.7,164.7,1818.6L164.7,1818.6z"/>
	<path style="clip-path:url(#SVGID_00000072252843190368945390000004375712101273178044_);fill:#373737;" d="M195.9,1822.5
		c40.2,87.3,188.8,109.5,445.9,66.3c385.7-64.7,315.7-246.5,277.2-365.6c-38.5-119.1-165.2-245.9-383.4-61.3
		c-79.1,86.4-236.6,142.9-315.5,189.9C167.5,1683.2,159.4,1740.1,195.9,1822.5L195.9,1822.5z"/>
	<path style="clip-path:url(#SVGID_00000072252843190368945390000004375712101273178044_);fill:#3C3C3C;" d="M227.5,1826.3
		c39.9,78.6,176.4,98.3,409.4,59.2c349.5-58.7,279-222.2,239.3-329.3c-39.6-107.2-161.1-207-334.5-53.3
		c-69,77.8-228.2,127.4-298.4,169.8C196.4,1700.9,191.2,1752.1,227.5,1826.3L227.5,1826.3z"/>
	<path style="clip-path:url(#SVGID_00000072252843190368945390000004375712101273178044_);fill:#404040;" d="M259.5,1830
		c38.9,70,162.8,87.3,371.7,52.3c313.3-52.6,243.7-198.1,204-293.5s-171-167-295.1-39.1c-59.5,69.4-210.1,105.6-272,143.5
		C226.9,1718.4,224,1764.1,259.5,1830L259.5,1830z"/>
	<path style="clip-path:url(#SVGID_00000072252843190368945390000004375712101273178044_);fill:#444444;" d="M291.9,1833.7
		c37.1,61.4,148.1,76.6,332.9,45.6c277.2-46.5,210-174.3,171.2-258.1c-38.7-83.8-213.7-95-264.2-34s-183.4,93.1-237.1,126.3
		C258.9,1735.7,257.9,1775.7,291.9,1833.7L291.9,1833.7z"/>
</g>
</svg>
