<?xml version="1.0" encoding="utf-8"?>
<!-- Generator: Adobe Illustrator 27.1.1, SVG Export Plug-In . SVG Version: 6.00 Build 0)  -->
<svg  version="1.1" id="Livello_1" xmlns="http://www.w3.org/2000/svg" xmlns:xlink="http://www.w3.org/1999/xlink" x="0px" y="0px"
	 viewBox="0 0 1366 768" style="enable-background:new 0 0 1366 768;" xml:space="preserve">
<style type="text/css">
	.st0{clip-path:url(#SVGID_00000078736988874685292500000017151246706948823988_);}
	.st1{clip-path:url(#SVGID_00000093856152406036129520000003206735520240508603_);fill:#595959;}
	.st2{clip-path:url(#SVGID_00000078736988874685292500000017151246706948823988_);fill:#FFFA72;}
	.st3{clip-path:url(#SVGID_00000078736988874685292500000017151246706948823988_);fill:#151515;}
	.st4{clip-path:url(#SVGID_00000078736988874685292500000017151246706948823988_);fill:#1A1A1A;}
	.st5{clip-path:url(#SVGID_00000078736988874685292500000017151246706948823988_);fill:#1E1E1E;}
	.st6{clip-path:url(#SVGID_00000078736988874685292500000017151246706948823988_);fill:#222222;}
	.st7{clip-path:url(#SVGID_00000078736988874685292500000017151246706948823988_);fill:#262626;}
	.st8{clip-path:url(#SVGID_00000078736988874685292500000017151246706948823988_);fill:#2B2B2B;}
	.st9{clip-path:url(#SVGID_00000078736988874685292500000017151246706948823988_);fill:#2F2F2F;}
	.st10{clip-path:url(#SVGID_00000078736988874685292500000017151246706948823988_);fill:#333333;}
	.st11{clip-path:url(#SVGID_00000078736988874685292500000017151246706948823988_);fill:#373737;}
	.st12{clip-path:url(#SVGID_00000078736988874685292500000017151246706948823988_);fill:#3C3C3C;}
	.st13{clip-path:url(#SVGID_00000078736988874685292500000017151246706948823988_);fill:#404040;}
	.st14{clip-path:url(#SVGID_00000078736988874685292500000017151246706948823988_);fill:#444444;}
</style>
<g>
	<defs>
		<rect id="SVGID_1_" x="0" y="-0.8" width="1366" height="769.5"/>
	</defs>
	<clipPath id="SVGID_00000125574322510961482060000010226979734801446325_">
		<use xlink:href="#SVGID_1_"  style="overflow:visible;"/>
	</clipPath>
	<g style="clip-path:url(#SVGID_00000125574322510961482060000010226979734801446325_);">
		<g>
			<defs>
				<rect id="SVGID_00000035525967739528902880000011322207290546173586_" x="0" y="-0.8" width="1366" height="769.5"/>
			</defs>
			<clipPath id="SVGID_00000042702892531585463900000002270466290728879022_">
				<use xlink:href="#SVGID_00000035525967739528902880000011322207290546173586_"  style="overflow:visible;"/>
			</clipPath>
			
				<rect x="0" y="-0.8" style="clip-path:url(#SVGID_00000042702892531585463900000002270466290728879022_);fill:#595959;" width="1366" height="769.5"/>
		</g>
	</g>
	<path style="clip-path:url(#SVGID_00000125574322510961482060000010226979734801446325_);fill:#FFFA72;" d="M603.1,449.7
		c-23,54-18.6,87.8,13,101.6c47.4,20.6,160.2,28.8,207.4,73.4c47.2,44.6,190.9,10.1,215.5-66.4c24.6-76.6,68.9-194.6-164.6-194.6
		C718.7,363.7,628.3,392.3,603.1,449.7L603.1,449.7z"/>
	<path style="clip-path:url(#SVGID_00000125574322510961482060000010226979734801446325_);fill:#151515;" d="M1646.3,859.5
		c-35.6-172.9,73.4-756.4-279.9-847.3C1280-10,900.6,3,772.2,3C336.4,3,251.3,393.2,265.4,554.5l0,0
		c15.5,151.7-14.5,341.4,94.3,379.9c163.2,57.8,112.4,19.1,310.3,144.5S2180.5,1270.8,1646.3,859.5"/>
	<path style="clip-path:url(#SVGID_00000125574322510961482060000010226979734801446325_);fill:#1A1A1A;" d="M1565.1,835.2
		c48.8-723.1-108.8-813.4-727.4-813.4c-412.4,0-569.9,373.7-564.6,525.7l0,0c7.3,143.1,2.2,308.4,103.3,344.7
		c151.6,54.5,159.6,30.2,340.9,148.5C883.9,1118.1,1596.6,1038.1,1565.1,835.2"/>
	<path style="clip-path:url(#SVGID_00000125574322510961482060000010226979734801446325_);fill:#1E1E1E;" d="M316.7,538.6
		c0.2,135,19.8,264,113.4,298.3c140.5,51.4,172.4,63.1,337.8,174.6c165.4,111.6,774.3-10.1,754.1-201.5
		c-9.4-605.2-98.7-729.2-682.2-729.2C450.8,80.7,318.7,395.1,316.7,538.6L316.7,538.6z"/>
	<path style="clip-path:url(#SVGID_00000125574322510961482060000010226979734801446325_);fill:#222222;" d="M343.2,529.7
		c-5.8,127,32.2,247.2,118.8,279.5c129.8,48.3,200.5,76.9,351,181.7s661.5-26.2,651.1-206.1c-14.2-411.5-60.3-654.7-608.9-654.7
		C489.6,130.1,351.5,394.9,343.2,529.7L343.2,529.7z"/>
	<path style="clip-path:url(#SVGID_00000125574322510961482060000010226979734801446325_);fill:#262626;" d="M370.3,520.9
		c-11,118.8,51,229.2,130.6,259.4c119.4,45.2,202.5,87.2,338.9,185.4s570.9-37.5,568.9-206.1c0-255.5-39.9-577.8-553.4-577.8
		C512.9,181.9,383.9,394.6,370.3,520.9L370.3,520.9z"/>
	<path style="clip-path:url(#SVGID_00000125574322510961482060000010226979734801446325_);fill:#2B2B2B;" d="M397.9,514.8
		c-15.1,110.7,23,201.2,96,229.3c109.4,42.2,263,85.1,361.3,191.4c123,91.4,495.1-41.3,500.3-198.3
		c7.4-173.8-21.8-506.1-500.3-506.1C536.3,231.2,415.8,397.1,397.9,514.8L397.9,514.8z"/>
	<path style="clip-path:url(#SVGID_00000125574322510961482060000010226979734801446325_);fill:#2F2F2F;" d="M426.8,522
		c-18.5,102.6,5.5,166.9,72,193c99.7,39.1,279.8,94.8,390.1,179.6c110.4,84.8,413.7,8.8,416.6-166.4c11-145.5,27-456-416.6-456
		C593.2,272.2,448.1,413,426.8,522L426.8,522z"/>
	<path style="clip-path:url(#SVGID_00000125574322510961482060000010226979734801446325_);fill:#333333;" d="M454.5,494.2
		c-21,94.5-1.4,153.7,58.8,177.8c90.3,36,264.3,84.4,362.7,162.5c255.1,150.3,364-16.3,379.8-150.3s41.6-377-366.9-377
		C616.6,307.1,478.4,393.7,454.5,494.2L454.5,494.2z"/>
	<path style="clip-path:url(#SVGID_00000125574322510961482060000010226979734801446325_);fill:#373737;" d="M483.4,485.3
		c-22.8,86.4-7.1,140.6,47,162.6c81.2,32.9,237.9,62.3,324.9,133.7c232.2,144.5,334,0,353.6-122.5c19.6-122.5,53.5-321.7-320-321.7
		C639.9,337.2,509.1,393.5,483.4,485.3L483.4,485.3z"/>
	<path style="clip-path:url(#SVGID_00000125574322510961482060000010226979734801446325_);fill:#3C3C3C;" d="M512.8,476.4
		c-23.8,78.3-11.7,127.4,36.6,147.3c72.4,29.8,229.8,52.1,305.9,116.9c185.5,121.6,286.2,4.3,308.5-106.7
		c22.3-111,65.9-282.2-272.6-282.2C665.5,351.6,539.4,393.2,512.8,476.4L512.8,476.4z"/>
	<path style="clip-path:url(#SVGID_00000125574322510961482060000010226979734801446325_);fill:#404040;" d="M542.5,467.5
		c-24.2,70.2-15,114.2,27.5,132c63.8,26.8,211.3,37.4,277.2,95.5c135.2,104.6,249.2,13.1,273.2-86.4c24-99.6,69.3-253-234.2-253
		C683.9,355.7,569.4,392.9,542.5,467.5L542.5,467.5z"/>
	<path style="clip-path:url(#SVGID_00000125574322510961482060000010226979734801446325_);fill:#444444;" d="M572.6,458.7
		c-23.9,62.1-17.4,101.1,19.6,116.8c55.5,23.6,185.6,33.1,241.9,84.4c56.3,51.3,220,11.6,244.7-76.4
		c24.8-88.1,70.2-223.8-198.2-223.8C701.7,359.7,599,392.7,572.6,458.7L572.6,458.7z"/>
	<path style="clip-path:url(#SVGID_00000125574322510961482060000010226979734801446325_);fill:#FFFA72;" d="M328.4,1849
		c33.2,52.3,126.6,65.2,280.3,38.6c230.5-40,169.9-148.9,134.7-220.4c-35.3-71.4-182.2-80.8-222.3-28.8
		c-40.1,52.1-150.4,79.5-194.3,108C297.5,1765.5,298,1799.6,328.4,1849L328.4,1849z"/>
	<path style="clip-path:url(#SVGID_00000125574322510961482060000010226979734801446325_);fill:#151515;" d="M-20.1,1803.4
		c-189.2,597.1,229.9,643,660.3,568.4c126.8-22,364.4-221.7,426.9-286.7c263-273.5,250.1-588.4,303.1-814.3
		c339.7-177.6-888-212.2-1065.6-54.5C127,1373.9,171.8,1327,18.8,1412.1C-83.2,1468.7-26.4,1650.8-20.1,1803.4L-20.1,1803.4z"/>
	<path style="clip-path:url(#SVGID_00000125574322510961482060000010226979734801446325_);fill:#1A1A1A;" d="M6,1806
		c-59.1,365.1,83.8,577.2,491.1,506.7c610.9-105.9,750.4-616.3,743.8-1011.9c2-205.9-713.4-162.9-866.8-58
		c-162,147.8-173.5,125.2-315.4,205C-35.9,1501-7.3,1663.4,6,1806L6,1806z"/>
	<path style="clip-path:url(#SVGID_00000125574322510961482060000010226979734801446325_);fill:#1E1E1E;" d="M32.8,1810.3
		c22.5,141.3,16.2,495.5,400.4,428.9c576.4-99.8,784.5-569.4,751.3-903.3c-7.5-192.5-626.2-208.5-773.7-70
		c-147.4,138.5-177.2,155.5-308.6,230.3C14.6,1546.2,13.7,1676.9,32.8,1810.3L32.8,1810.3z"/>
	<path style="clip-path:url(#SVGID_00000125574322510961482060000010226979734801446325_);fill:#222222;" d="M60.3,1814.5
		c27.5,131.8,51.3,417.5,412.5,354.9c541.8-93.9,703.1-564,658.1-798.7c-15.4-179.5-538.9-221.5-672.5-92.1S259,1448.2,137.7,1518.2
		C56.9,1564.8,36.4,1690.1,60.3,1814.5L60.3,1814.5z"/>
	<path style="clip-path:url(#SVGID_00000125574322510961482060000010226979734801446325_);fill:#262626;" d="M88.4,1818.7
		c31.4,122.3,87.1,328.7,425.2,270.1c507.2-87.8,563.4-377.6,566.2-683.7c-22.2-166.8-470.7-226.4-591.4-106.1
		c-120.8,120.3-196.7,176-308.2,241.1C106,1583.5,60.6,1703.2,88.4,1818.7L88.4,1818.7z"/>
	<path style="clip-path:url(#SVGID_00000125574322510961482060000010226979734801446325_);fill:#2B2B2B;" d="M116.5,1819.9
		c34.5,113.1,109.9,241.6,425,187c472.6-81.9,528.9-391.2,489.1-570.7C1003,1282,616.4,1214.6,508.1,1326
		c-82,121.7-227.5,190.5-329.5,250.9C110.5,1617.2,85.7,1713.1,116.5,1819.9L116.5,1819.9z"/>
	<path style="clip-path:url(#SVGID_00000125574322510961482060000010226979734801446325_);fill:#2F2F2F;" d="M144,1807.8
		c36.6,104,144,194.3,436,143.7c438-75.9,451.9-297.9,402.4-497.8c-27.9-172.5-338.4-195.6-435.2-93
		c-96.9,102.6-266.8,188.5-359.7,244.1C125.5,1642,111.1,1709.6,144,1807.8L144,1807.8z"/>
	<path style="clip-path:url(#SVGID_00000125574322510961482060000010226979734801446325_);fill:#333333;" d="M175.4,1830.6
		c37.9,95.1,178.2,142.4,447.2,95.7c403.5-69.9,359.8-289.3,317-420.5c-34.9-129.7-166.1-275.6-396.6-83.5
		c-86,94-251,171.6-335,222.6C152,1678.9,141,1740.8,175.4,1830.6L175.4,1830.6z"/>
	<path style="clip-path:url(#SVGID_00000125574322510961482060000010226979734801446325_);fill:#373737;" d="M205.2,1834.4
		c38.5,86.3,180.6,108.1,426.5,65.5c368.9-64,302-243.5,265.1-361.2s-158-243-366.7-60.5c-75.7,85.4-226.3,141.2-301.8,187.6
		C178.1,1696.8,170.3,1753,205.2,1834.4L205.2,1834.4z"/>
	<path style="clip-path:url(#SVGID_00000125574322510961482060000010226979734801446325_);fill:#3C3C3C;" d="M235.4,1838.2
		c38.1,77.6,168.7,97.1,391.6,58.5c334.3-58,266.8-219.5,228.9-325.4s-154.1-204.5-319.9-52.7c-66,76.9-218.3,125.9-285.4,167.7
		C205.7,1714.3,200.7,1764.9,235.4,1838.2L235.4,1838.2z"/>
	<path style="clip-path:url(#SVGID_00000125574322510961482060000010226979734801446325_);fill:#404040;" d="M266,1841.9
		c37.2,69.1,155.7,86.3,355.5,51.7c299.7-52,233.1-195.7,195.1-290c-37.9-94.2-163.6-165-282.2-38.6
		c-56.9,68.6-201,104.4-260.2,141.7C234.9,1731.6,232.1,1776.7,266,1841.9L266,1841.9z"/>
	<path style="clip-path:url(#SVGID_00000125574322510961482060000010226979734801446325_);fill:#444444;" d="M297.1,1845.4
		c35.5,60.6,141.6,75.7,318.4,45.1c265.1-45.9,200.8-172.2,163.7-255c-37-82.8-204.4-93.9-252.6-33.6
		c-48.2,60.3-175.4,92-226.8,124.8C265.5,1748.7,264.5,1788.2,297.1,1845.4L297.1,1845.4z"/>
</g>
</svg>
