<?xml version="1.0" encoding="utf-8"?>
<!-- Generator: Adobe Illustrator 27.1.1, SVG Export Plug-In . SVG Version: 6.00 Build 0)  -->
<svg version="1.1" id="Livello_1" xmlns="http://www.w3.org/2000/svg" xmlns:xlink="http://www.w3.org/1999/xlink" x="0px" y="0px"
	 viewBox="0 0 1366 768" style="enable-background:new 0 0 1366 768;" xml:space="preserve">
<style type="text/css">
	.st0{clip-path:url(#SVGID_00000097471992714824717840000005290952827558245261_);}
	.st1{clip-path:url(#SVGID_00000155118741697281856090000017974021689796993169_);fill:#595959;}
	.st2{clip-path:url(#SVGID_00000097471992714824717840000005290952827558245261_);fill:#FFFA72;}
	.st3{clip-path:url(#SVGID_00000097471992714824717840000005290952827558245261_);fill:#151515;}
	.st4{clip-path:url(#SVGID_00000097471992714824717840000005290952827558245261_);fill:#1A1A1A;}
	.st5{clip-path:url(#SVGID_00000097471992714824717840000005290952827558245261_);fill:#1E1E1E;}
	.st6{clip-path:url(#SVGID_00000097471992714824717840000005290952827558245261_);fill:#222222;}
	.st7{clip-path:url(#SVGID_00000097471992714824717840000005290952827558245261_);fill:#262626;}
	.st8{clip-path:url(#SVGID_00000097471992714824717840000005290952827558245261_);fill:#2B2B2B;}
	.st9{clip-path:url(#SVGID_00000097471992714824717840000005290952827558245261_);fill:#2F2F2F;}
	.st10{clip-path:url(#SVGID_00000097471992714824717840000005290952827558245261_);fill:#333333;}
	.st11{clip-path:url(#SVGID_00000097471992714824717840000005290952827558245261_);fill:#373737;}
	.st12{clip-path:url(#SVGID_00000097471992714824717840000005290952827558245261_);fill:#3C3C3C;}
	.st13{clip-path:url(#SVGID_00000097471992714824717840000005290952827558245261_);fill:#404040;}
	.st14{clip-path:url(#SVGID_00000097471992714824717840000005290952827558245261_);fill:#444444;}
</style>
<g>
	<defs>
		<rect id="SVGID_1_" y="-0.8" width="1366" height="769.5"/>
	</defs>
	<clipPath id="SVGID_00000065792718359294507010000001259781499802513062_">
		<use xlink:href="#SVGID_1_"  style="overflow:visible;"/>
	</clipPath>
	<g style="clip-path:url(#SVGID_00000065792718359294507010000001259781499802513062_);">
		<g>
			<defs>
				<rect id="SVGID_00000119835572758818808510000015353439966394614934_" y="-0.8" width="1366" height="769.5"/>
			</defs>
			<clipPath id="SVGID_00000105398960541666168680000007084979662876844713_">
				<use xlink:href="#SVGID_00000119835572758818808510000015353439966394614934_"  style="overflow:visible;"/>
			</clipPath>
			
				<rect y="-0.8" style="clip-path:url(#SVGID_00000105398960541666168680000007084979662876844713_);fill:#595959;" width="1366" height="769.5"/>
		</g>
	</g>
	<path style="clip-path:url(#SVGID_00000065792718359294507010000001259781499802513062_);fill:#FFFA72;" d="M604.1-1089.3
		c-23,54-18.6,87.8,13,101.6c47.4,20.6,160.2,28.8,207.4,73.4c47.2,44.6,190.9,10.1,215.5-66.4c24.6-76.6,68.9-194.6-164.6-194.6
		C719.7-1175.3,629.3-1146.7,604.1-1089.3L604.1-1089.3z"/>
	<path style="clip-path:url(#SVGID_00000065792718359294507010000001259781499802513062_);fill:#151515;" d="M266.4-984.5
		c15.5,151.7-14.5,341.4,94.3,379.9c163.2,57.8,112.4,19.1,310.3,144.5s1510.5,191.9,976.3-219.4
		c-35.6-172.9,73.4-756.4-279.9-847.3c-86.4-22.2-465.8-9.2-594.2-9.2C337.4-1536,252.3-1145.8,266.4-984.5L266.4-984.5z"/>
	<path style="clip-path:url(#SVGID_00000065792718359294507010000001259781499802513062_);fill:#1A1A1A;" d="M274.2-991.5
		c7.3,143.1,2.2,308.4,103.3,344.7c151.6,54.5,159.6,30.2,340.9,148.5c166.5,77.4,879.2-2.6,847.8-205.5
		c48.8-723.1-108.8-813.4-727.4-813.4C426.4-1517.2,268.8-1143.5,274.2-991.5L274.2-991.5z"/>
	<path style="clip-path:url(#SVGID_00000065792718359294507010000001259781499802513062_);fill:#1E1E1E;" d="M317.7-1000.4
		c0.2,135,19.8,264,113.4,298.3c140.5,51.4,172.4,63.1,337.8,174.6c165.4,111.6,774.3-10.1,754.1-201.5
		c-9.4-605.2-98.7-729.2-682.2-729.2C451.8-1458.3,319.7-1143.9,317.7-1000.4L317.7-1000.4z"/>
	<path style="clip-path:url(#SVGID_00000065792718359294507010000001259781499802513062_);fill:#222222;" d="M344.2-1009.3
		c-5.8,127,32.2,247.2,118.8,279.5c129.8,48.3,200.5,76.9,351,181.7s661.5-26.2,651.1-206.1c-14.2-411.5-60.3-654.7-608.9-654.7
		C490.6-1408.9,352.5-1144.1,344.2-1009.3L344.2-1009.3z"/>
	<path style="clip-path:url(#SVGID_00000065792718359294507010000001259781499802513062_);fill:#262626;" d="M371.3-1018.1
		c-11,118.8,51,229.2,130.6,259.4c119.4,45.2,202.5,87.2,338.9,185.4s570.9-37.5,568.9-206.1c0-255.5-39.9-577.8-553.4-577.8
		C513.9-1357.1,384.9-1144.4,371.3-1018.1L371.3-1018.1z"/>
	<path style="clip-path:url(#SVGID_00000065792718359294507010000001259781499802513062_);fill:#2B2B2B;" d="M398.9-1024.2
		c-15.1,110.7,23,201.2,96,229.3c109.4,42.2,263,85.1,361.3,191.4c123,91.4,495.1-41.3,500.3-198.3
		c7.4-173.8-21.8-506.1-500.3-506.1C537.3-1307.8,416.8-1141.9,398.9-1024.2L398.9-1024.2z"/>
	<path style="clip-path:url(#SVGID_00000065792718359294507010000001259781499802513062_);fill:#2F2F2F;" d="M427.8-1017
		c-18.5,102.6,5.5,166.9,72,193c99.7,39.1,279.8,94.8,390.1,179.6c110.4,84.8,413.7,8.8,416.6-166.4c11-145.5,27-456-416.6-456
		C594.2-1266.8,449.1-1126,427.8-1017L427.8-1017z"/>
	<path style="clip-path:url(#SVGID_00000065792718359294507010000001259781499802513062_);fill:#333333;" d="M455.5-1044.8
		c-21,94.5-1.4,153.7,58.8,177.8c90.3,36,264.3,84.4,362.7,162.5c255.1,150.3,364-16.3,379.8-150.3s41.6-377-366.9-377
		C617.6-1231.9,479.4-1145.3,455.5-1044.8L455.5-1044.8z"/>
	<path style="clip-path:url(#SVGID_00000065792718359294507010000001259781499802513062_);fill:#373737;" d="M484.4-1053.7
		c-22.8,86.4-7.1,140.6,47,162.6c81.2,32.9,237.9,62.3,324.9,133.7c232.2,144.5,334,0,353.6-122.5c19.6-122.5,53.5-321.7-320-321.7
		C640.9-1201.8,510.1-1145.5,484.4-1053.7L484.4-1053.7z"/>
	<path style="clip-path:url(#SVGID_00000065792718359294507010000001259781499802513062_);fill:#3C3C3C;" d="M513.8-1062.6
		c-23.8,78.3-11.7,127.4,36.6,147.3c72.4,29.8,229.8,52.1,305.9,116.9c185.5,121.6,286.2,4.3,308.5-106.7
		c22.3-111,65.9-282.2-272.6-282.2C666.5-1187.4,540.4-1145.8,513.8-1062.6L513.8-1062.6z"/>
	<path style="clip-path:url(#SVGID_00000065792718359294507010000001259781499802513062_);fill:#404040;" d="M543.5-1071.5
		c-24.2,70.2-15,114.2,27.5,132c63.8,26.8,211.3,37.4,277.2,95.5c135.2,104.6,249.2,13.1,273.2-86.4c24-99.6,69.3-253-234.2-253
		C684.9-1183.3,570.4-1146.1,543.5-1071.5L543.5-1071.5z"/>
	<path style="clip-path:url(#SVGID_00000065792718359294507010000001259781499802513062_);fill:#444444;" d="M573.6-1080.3
		c-23.9,62.1-17.4,101.1,19.6,116.8c55.5,23.6,185.6,33.1,241.9,84.4c56.3,51.3,220,11.6,244.7-76.4
		c24.8-88.1,70.2-223.8-198.2-223.8C702.7-1179.3,600-1146.3,573.6-1080.3L573.6-1080.3z"/>
	<path style="clip-path:url(#SVGID_00000065792718359294507010000001259781499802513062_);fill:#FFFA72;" d="M329.4,310
		c33.2,52.3,126.6,65.2,280.3,38.6c230.5-40,169.9-148.9,134.7-220.4c-35.3-71.4-182.2-80.8-222.3-28.8
		c-40.1,52.1-150.4,79.5-194.3,108C298.5,226.5,299,260.6,329.4,310L329.4,310z"/>
	<path style="clip-path:url(#SVGID_00000065792718359294507010000001259781499802513062_);fill:#151515;" d="M-19.1,264.4
		c-189.2,597.1,229.9,643,660.3,568.4c126.8-22,364.4-221.7,426.9-286.7c263-273.5,250.1-588.4,303.1-814.3
		c339.7-177.6-888-212.2-1065.6-54.5C128-165.1,172.8-212,19.8-126.9C-82.2-70.3-25.4,111.8-19.1,264.4L-19.1,264.4z"/>
	<path style="clip-path:url(#SVGID_00000065792718359294507010000001259781499802513062_);fill:#1A1A1A;" d="M7,267
		c-59.1,365.1,83.8,577.2,491.1,506.7c610.9-105.9,750.4-616.3,743.8-1011.9c2-205.9-713.4-162.9-866.8-58
		C213.1-148.5,201.6-171,59.7-91.2C-34.9-38-6.3,124.4,7,267L7,267z"/>
	<path style="clip-path:url(#SVGID_00000065792718359294507010000001259781499802513062_);fill:#1E1E1E;" d="M33.8,271.3
		C56.3,412.6,50,766.8,434.3,700.2c576.4-99.8,784.5-569.4,751.3-903.3c-7.5-192.5-626.2-208.5-773.7-70
		C264.5-134.6,234.7-117.6,103.3-42.8C15.6,7.2,14.7,137.9,33.8,271.3L33.8,271.3z"/>
	<path style="clip-path:url(#SVGID_00000065792718359294507010000001259781499802513062_);fill:#222222;" d="M61.3,275.5
		c27.5,131.8,51.3,417.5,412.5,354.9c541.8-93.9,703.1-564,658.1-798.7c-15.4-179.5-538.9-221.5-672.5-92.1S260-90.8,138.7-20.8
		C57.9,25.8,37.4,151.1,61.3,275.5L61.3,275.5z"/>
	<path style="clip-path:url(#SVGID_00000065792718359294507010000001259781499802513062_);fill:#262626;" d="M89.4,279.7
		c31.4,122.3,87.1,328.7,425.2,270.1c507.2-87.8,563.4-377.6,566.2-683.7c-22.2-166.8-470.7-226.4-591.4-106.1
		C368.8-119.8,292.8-64.1,181.3,1.1C107,44.5,61.6,164.2,89.4,279.7L89.4,279.7z"/>
	<path style="clip-path:url(#SVGID_00000065792718359294507010000001259781499802513062_);fill:#2B2B2B;" d="M117.5,280.9
		c34.5,113.1,109.9,241.6,425,187c472.6-81.9,528.9-391.2,489.1-570.7C1004-257,617.4-324.4,509.1-213
		C427.1-91.2,281.5-22.5,179.6,37.9C111.5,78.2,86.7,174.1,117.5,280.9L117.5,280.9z"/>
	<path style="clip-path:url(#SVGID_00000065792718359294507010000001259781499802513062_);fill:#2F2F2F;" d="M145,268.8
		c36.6,104,144,194.3,436,143.7c438-75.9,451.9-297.9,402.4-497.8c-27.9-172.5-338.4-195.6-435.2-93
		C451.2-75.7,281.4,10.2,188.5,65.8C126.5,103,112.1,170.6,145,268.8L145,268.8z"/>
	<path style="clip-path:url(#SVGID_00000065792718359294507010000001259781499802513062_);fill:#333333;" d="M176.4,291.6
		c37.9,95.1,178.2,142.4,447.2,95.7c403.5-69.9,359.8-289.3,317-420.5C905.7-162.9,774.5-308.9,544-116.7
		c-86,94-251,171.6-335,222.6C153,139.9,142,201.8,176.4,291.6L176.4,291.6z"/>
	<path style="clip-path:url(#SVGID_00000065792718359294507010000001259781499802513062_);fill:#373737;" d="M206.2,295.4
		c38.5,86.3,180.6,108.1,426.5,65.5c368.9-64,302-243.5,265.1-361.2s-158-243-366.7-60.5C455.5,24.6,304.9,80.4,229.4,126.8
		C179.1,157.8,171.3,214,206.2,295.4L206.2,295.4z"/>
	<path style="clip-path:url(#SVGID_00000065792718359294507010000001259781499802513062_);fill:#3C3C3C;" d="M236.4,299.2
		c38.1,77.6,168.7,97.1,391.6,58.5c334.3-58,266.8-219.5,228.9-325.4S702.8-172.2,537-20.4c-66,76.9-218.3,125.9-285.4,167.7
		C206.7,175.3,201.7,225.9,236.4,299.2L236.4,299.2z"/>
	<path style="clip-path:url(#SVGID_00000065792718359294507010000001259781499802513062_);fill:#404040;" d="M267,302.9
		c37.2,69.1,155.7,86.3,355.5,51.7c299.7-52,233.1-195.7,195.1-290c-37.9-94.2-163.6-165-282.2-38.6
		c-56.9,68.6-201,104.4-260.2,141.7C235.9,192.6,233.1,237.7,267,302.9L267,302.9z"/>
	<path style="clip-path:url(#SVGID_00000065792718359294507010000001259781499802513062_);fill:#444444;" d="M298.1,306.4
		c35.5,60.6,141.6,75.7,318.4,45.1c265.1-45.9,200.8-172.2,163.7-255c-37-82.8-204.4-93.9-252.6-33.6
		c-48.2,60.3-175.4,92-226.8,124.8C266.5,209.7,265.5,249.2,298.1,306.4L298.1,306.4z"/>
</g>
</svg>
