<?xml version="1.0" encoding="utf-8"?>
<!-- Generator: Adobe Illustrator 27.1.1, SVG Export Plug-In . SVG Version: 6.00 Build 0)  -->
<svg version="1.1" id="Livello_1" xmlns="http://www.w3.org/2000/svg" xmlns:xlink="http://www.w3.org/1999/xlink" x="0px" y="0px"
	 viewBox="0 0 1366 768" style="enable-background:new 0 0 1366 768;" xml:space="preserve">
<style type="text/css">
	.st0{clip-path:url(#SVGID_00000015337502615016938190000009906647186229831340_);}
	.st1{clip-path:url(#SVGID_00000124867856012243120400000002504560450451586471_);fill:#5B5A5A;}
	.st2{clip-path:url(#SVGID_00000015337502615016938190000009906647186229831340_);fill:#F8EE77;}
	.st3{clip-path:url(#SVGID_00000015337502615016938190000009906647186229831340_);fill:#151515;}
	.st4{clip-path:url(#SVGID_00000015337502615016938190000009906647186229831340_);fill:#1B1B1B;}
	.st5{clip-path:url(#SVGID_00000015337502615016938190000009906647186229831340_);fill:#1F1F1F;}
	.st6{clip-path:url(#SVGID_00000015337502615016938190000009906647186229831340_);fill:#222222;}
	.st7{clip-path:url(#SVGID_00000015337502615016938190000009906647186229831340_);fill:#262626;}
	.st8{clip-path:url(#SVGID_00000015337502615016938190000009906647186229831340_);fill:#2B2C2C;}
	.st9{clip-path:url(#SVGID_00000015337502615016938190000009906647186229831340_);fill:#303030;}
	.st10{clip-path:url(#SVGID_00000015337502615016938190000009906647186229831340_);fill:#343434;}
	.st11{clip-path:url(#SVGID_00000015337502615016938190000009906647186229831340_);fill:#383737;}
	.st12{clip-path:url(#SVGID_00000015337502615016938190000009906647186229831340_);fill:#3D3D3D;}
	.st13{clip-path:url(#SVGID_00000015337502615016938190000009906647186229831340_);fill:#404040;}
	.st14{clip-path:url(#SVGID_00000015337502615016938190000009906647186229831340_);fill:#454545;}
</style>
<g>
	<defs>
		<rect id="SVGID_1_" y="-0.8" width="1366" height="769.5"/>
	</defs>
	<clipPath id="SVGID_00000005253977664041906250000004182294620479416225_">
		<use xlink:href="#SVGID_1_"  style="overflow:visible;"/>
	</clipPath>
	<g style="clip-path:url(#SVGID_00000005253977664041906250000004182294620479416225_);">
		<g>
			<defs>
				<rect id="SVGID_00000004523518911567594190000000652060913047163563_" y="-0.8" width="1366" height="769.5"/>
			</defs>
			<clipPath id="SVGID_00000018920761437977929960000000925189622238701738_">
				<use xlink:href="#SVGID_00000004523518911567594190000000652060913047163563_"  style="overflow:visible;"/>
			</clipPath>
			
				<rect y="-0.8" style="clip-path:url(#SVGID_00000018920761437977929960000000925189622238701738_);fill:#5B5A5A;" width="1366" height="769.5"/>
		</g>
	</g>
	<path style="clip-path:url(#SVGID_00000005253977664041906250000004182294620479416225_);fill:#F8EE77;" d="M603.1-319.8
		c-23,54-18.6,87.8,13,101.6c47.4,20.6,160.2,28.8,207.4,73.4s190.9,10.1,215.5-66.4c24.6-76.6,68.9-194.6-164.6-194.6
		C718.7-405.8,628.3-377.2,603.1-319.8L603.1-319.8z"/>
	<path style="clip-path:url(#SVGID_00000005253977664041906250000004182294620479416225_);fill:#151515;" d="M1646.3,90
		c-35.6-172.9,73.4-756.4-279.9-847.3c-86.4-22.2-465.8-9.2-594.2-9.2C336.4-766.5,251.3-376.3,265.4-215l0,0
		c15.5,151.7-14.5,341.4,94.3,379.9C522.9,222.7,472.1,184,670,309.4S2180.5,501.3,1646.3,90"/>
	<path style="clip-path:url(#SVGID_00000005253977664041906250000004182294620479416225_);fill:#1B1B1B;" d="M1565.1,65.7
		c48.8-723.1-108.8-813.4-727.4-813.4C425.4-747.7,267.8-374,273.2-222l0,0c7.3,143.1,2.2,308.4,103.3,344.7
		c151.6,54.5,159.6,30.2,340.9,148.5C883.9,348.6,1596.6,268.6,1565.1,65.7"/>
	<path style="clip-path:url(#SVGID_00000005253977664041906250000004182294620479416225_);fill:#1F1F1F;" d="M316.7-230.9
		c0.2,135,19.8,264,113.4,298.3c140.5,51.4,172.4,63.1,337.8,174.6C933.3,353.6,1542.2,232,1522,40.6
		c-9.4-605.2-98.7-729.2-682.2-729.2C450.8-688.8,318.7-374.4,316.7-230.9L316.7-230.9z"/>
	<path style="clip-path:url(#SVGID_00000005253977664041906250000004182294620479416225_);fill:#222222;" d="M343.2-239.8
		C337.4-112.8,375.5,7.4,462,39.7C591.8,88,662.5,116.6,813,221.4s661.5-26.2,651.1-206.1c-14.2-411.5-60.3-654.7-608.9-654.7
		C489.6-639.4,351.5-374.6,343.2-239.8L343.2-239.8z"/>
	<path style="clip-path:url(#SVGID_00000005253977664041906250000004182294620479416225_);fill:#262626;" d="M370.3-248.6
		c-11,118.8,51,229.2,130.6,259.4C620.3,56,703.4,98,839.8,196.2s570.9-37.5,568.9-206.1c0-255.5-39.9-577.8-553.4-577.8
		C512.9-587.6,383.9-374.9,370.3-248.6L370.3-248.6z"/>
	<path style="clip-path:url(#SVGID_00000005253977664041906250000004182294620479416225_);fill:#2B2C2C;" d="M397.9-254.7
		c-15.1,110.7,23,201.2,96,229.3c109.4,42.2,263,85.1,361.3,191.4c123,91.4,495.1-41.3,500.3-198.3
		c7.4-173.8-21.8-506.1-500.3-506.1C536.3-538.3,415.8-372.4,397.9-254.7L397.9-254.7z"/>
	<path style="clip-path:url(#SVGID_00000005253977664041906250000004182294620479416225_);fill:#303030;" d="M426.8-247.5
		c-18.5,102.6,5.5,166.9,72,193c99.7,39.1,279.8,94.8,390.1,179.6s413.7,8.8,416.6-166.4c11-145.5,27-456-416.6-456
		C593.2-497.3,448.1-356.5,426.8-247.5L426.8-247.5z"/>
	<path style="clip-path:url(#SVGID_00000005253977664041906250000004182294620479416225_);fill:#343434;" d="M454.5-275.3
		c-21,94.5-1.4,153.7,58.8,177.8C603.6-61.6,777.6-13.1,876,65c255.1,150.3,364-16.3,379.8-150.3s41.6-377-366.9-377
		C616.6-462.4,478.4-375.8,454.5-275.3L454.5-275.3z"/>
	<path style="clip-path:url(#SVGID_00000005253977664041906250000004182294620479416225_);fill:#383737;" d="M483.4-284.2
		c-22.8,86.4-7.1,140.6,47,162.6c81.2,32.9,237.9,62.3,324.9,133.7c232.2,144.5,334,0,353.6-122.5c19.6-122.5,53.5-321.7-320-321.7
		C639.9-432.3,509.1-376,483.4-284.2L483.4-284.2z"/>
	<path style="clip-path:url(#SVGID_00000005253977664041906250000004182294620479416225_);fill:#3D3D3D;" d="M512.8-293.1
		c-23.8,78.3-11.7,127.4,36.6,147.3C621.8-116,779.2-93.7,855.3-28.9c185.5,121.6,286.2,4.3,308.5-106.7
		c22.3-111,65.9-282.2-272.6-282.2C665.5-417.9,539.4-376.3,512.8-293.1L512.8-293.1z"/>
	<path style="clip-path:url(#SVGID_00000005253977664041906250000004182294620479416225_);fill:#404040;" d="M542.5-302
		c-24.2,70.2-15,114.2,27.5,132c63.8,26.8,211.3,37.4,277.2,95.5c135.2,104.6,249.2,13.1,273.2-86.4c24-99.6,69.3-253-234.2-253
		C683.9-413.8,569.4-376.6,542.5-302L542.5-302z"/>
	<path style="clip-path:url(#SVGID_00000005253977664041906250000004182294620479416225_);fill:#454545;" d="M572.6-310.8
		c-23.9,62.1-17.4,101.1,19.6,116.8c55.5,23.6,185.6,33.1,241.9,84.4c56.3,51.3,220,11.6,244.7-76.4
		c24.8-88.1,70.2-223.8-198.2-223.8C701.7-409.8,599-376.8,572.6-310.8L572.6-310.8z"/>
	<path style="clip-path:url(#SVGID_00000005253977664041906250000004182294620479416225_);fill:#F8EE77;" d="M328.4,1079.5
		c33.2,52.3,126.6,65.2,280.3,38.6c230.5-40,169.9-148.9,134.7-220.4c-35.3-71.4-182.2-80.8-222.3-28.8
		c-40.1,52.1-150.4,79.5-194.3,108C297.5,996,298,1030.1,328.4,1079.5L328.4,1079.5z"/>
	<path style="clip-path:url(#SVGID_00000005253977664041906250000004182294620479416225_);fill:#151515;" d="M-20.1,1033.9
		c-189.2,597.1,229.9,643,660.3,568.4c126.8-22,364.4-221.7,426.9-286.7c263-273.5,250.1-588.4,303.1-814.3
		c339.7-177.6-888-212.2-1065.6-54.5C127,604.4,171.8,557.5,18.8,642.6C-83.2,699.2-26.4,881.3-20.1,1033.9L-20.1,1033.9z"/>
	<path style="clip-path:url(#SVGID_00000005253977664041906250000004182294620479416225_);fill:#1B1B1B;" d="M6,1036.5
		c-59.1,365.1,83.8,577.2,491.1,506.7c610.9-105.9,750.4-616.3,743.8-1011.9c2-205.9-713.4-162.9-866.8-58
		c-162,147.8-173.5,125.2-315.4,205C-35.9,731.5-7.3,893.9,6,1036.5L6,1036.5z"/>
	<path style="clip-path:url(#SVGID_00000005253977664041906250000004182294620479416225_);fill:#1F1F1F;" d="M32.8,1040.8
		c22.5,141.3,16.2,495.5,400.4,428.9c576.4-99.8,784.5-569.4,751.3-903.3c-7.5-192.5-626.2-208.5-773.7-70
		C263.5,634.9,233.7,651.9,102.3,726.7C14.6,776.7,13.7,907.4,32.8,1040.8L32.8,1040.8z"/>
	<path style="clip-path:url(#SVGID_00000005253977664041906250000004182294620479416225_);fill:#222222;" d="M60.3,1045
		c27.5,131.8,51.3,417.5,412.5,354.9c541.8-93.9,703.1-564,658.1-798.7C1115.5,421.7,592,379.7,458.4,509S259,678.7,137.7,748.7
		C56.9,795.3,36.4,920.6,60.3,1045L60.3,1045z"/>
	<path style="clip-path:url(#SVGID_00000005253977664041906250000004182294620479416225_);fill:#262626;" d="M88.4,1049.2
		c31.4,122.3,87.1,328.7,425.2,270.1c507.2-87.8,563.4-377.6,566.2-683.7c-22.2-166.8-470.7-226.4-591.4-106.1
		c-120.8,120.3-196.7,176-308.2,241.1C106,814,60.6,933.7,88.4,1049.2L88.4,1049.2z"/>
	<path style="clip-path:url(#SVGID_00000005253977664041906250000004182294620479416225_);fill:#2B2C2C;" d="M116.5,1050.4
		c34.5,113.1,109.9,241.6,425,187c472.6-81.9,528.9-391.2,489.1-570.7C1003,512.5,616.4,445.1,508.1,556.5
		c-82,121.7-227.5,190.5-329.5,250.9C110.5,847.7,85.7,943.6,116.5,1050.4L116.5,1050.4z"/>
	<path style="clip-path:url(#SVGID_00000005253977664041906250000004182294620479416225_);fill:#303030;" d="M144,1038.3
		c36.6,104,144,194.3,436,143.7c438-75.9,451.9-297.9,402.4-497.8c-27.9-172.5-338.4-195.6-435.2-93
		c-96.9,102.6-266.8,188.5-359.7,244.1C125.5,872.5,111.1,940.1,144,1038.3L144,1038.3z"/>
	<path style="clip-path:url(#SVGID_00000005253977664041906250000004182294620479416225_);fill:#343434;" d="M175.4,1061.1
		c37.9,95.1,178.2,142.4,447.2,95.7c403.5-69.9,359.8-289.3,317-420.5C904.7,606.6,773.5,460.6,543,652.8
		c-86,94-251,171.6-335,222.6C152,909.4,141,971.3,175.4,1061.1L175.4,1061.1z"/>
	<path style="clip-path:url(#SVGID_00000005253977664041906250000004182294620479416225_);fill:#383737;" d="M205.2,1064.9
		c38.5,86.3,180.6,108.1,426.5,65.5c368.9-64,302-243.5,265.1-361.2s-158-243-366.7-60.5c-75.7,85.4-226.3,141.2-301.8,187.6
		C178.1,927.3,170.3,983.5,205.2,1064.9L205.2,1064.9z"/>
	<path style="clip-path:url(#SVGID_00000005253977664041906250000004182294620479416225_);fill:#3D3D3D;" d="M235.4,1068.7
		c38.1,77.6,168.7,97.1,391.6,58.5c334.3-58,266.8-219.5,228.9-325.4S701.8,597.3,536,749.1C470,826,317.7,875,250.5,916.9
		C205.7,944.8,200.7,995.4,235.4,1068.7L235.4,1068.7z"/>
	<path style="clip-path:url(#SVGID_00000005253977664041906250000004182294620479416225_);fill:#404040;" d="M266,1072.4
		c37.2,69.1,155.7,86.3,355.5,51.7c299.7-52,233.1-195.7,195.1-290c-37.9-94.2-163.6-165-282.2-38.6
		c-56.9,68.6-201,104.4-260.2,141.7C234.9,962.1,232.1,1007.2,266,1072.4L266,1072.4z"/>
	<path style="clip-path:url(#SVGID_00000005253977664041906250000004182294620479416225_);fill:#454545;" d="M297.1,1075.9
		c35.5,60.6,141.6,75.7,318.4,45.1c265.1-45.9,200.8-172.2,163.7-255c-37-82.8-204.4-93.9-252.6-33.6
		c-48.2,60.3-175.4,92-226.8,124.8C265.5,979.2,264.5,1018.7,297.1,1075.9L297.1,1075.9z"/>
</g>
</svg>
