<?xml version="1.0" encoding="utf-8"?>
<!-- Generator: Adobe Illustrator 27.1.1, SVG Export Plug-In . SVG Version: 6.00 Build 0)  -->
<svg version="1.1" id="Livello_1" xmlns="http://www.w3.org/2000/svg" xmlns:xlink="http://www.w3.org/1999/xlink" x="0px" y="0px"
	 viewBox="0 0 1428.7 902" style="enable-background:new 0 0 1428.7 902;" xml:space="preserve">
<style type="text/css">
	.st0{clip-path:url(#SVGID_00000166656296179633980380000013545539116574498191_);fill:#595959;}
	.st1{clip-path:url(#SVGID_00000166656296179633980380000013545539116574498191_);fill:#FFFA72;}
	.st2{clip-path:url(#SVGID_00000166656296179633980380000013545539116574498191_);fill:#151515;}
	.st3{clip-path:url(#SVGID_00000166656296179633980380000013545539116574498191_);fill:#1A1A1A;}
	.st4{clip-path:url(#SVGID_00000166656296179633980380000013545539116574498191_);fill:#1E1E1E;}
	.st5{clip-path:url(#SVGID_00000166656296179633980380000013545539116574498191_);fill:#222222;}
	.st6{clip-path:url(#SVGID_00000166656296179633980380000013545539116574498191_);fill:#262626;}
	.st7{clip-path:url(#SVGID_00000166656296179633980380000013545539116574498191_);fill:#2B2B2B;}
	.st8{clip-path:url(#SVGID_00000166656296179633980380000013545539116574498191_);fill:#2F2F2F;}
	.st9{clip-path:url(#SVGID_00000166656296179633980380000013545539116574498191_);fill:#333333;}
	.st10{clip-path:url(#SVGID_00000166656296179633980380000013545539116574498191_);fill:#373737;}
	.st11{clip-path:url(#SVGID_00000166656296179633980380000013545539116574498191_);fill:#3C3C3C;}
	.st12{clip-path:url(#SVGID_00000166656296179633980380000013545539116574498191_);fill:#404040;}
	.st13{clip-path:url(#SVGID_00000166656296179633980380000013545539116574498191_);fill:#444444;}
</style>
<g>
	<defs>
		<rect id="SVGID_1_" y="-0.2" width="1428.7" height="902.2"/>
	</defs>
	<clipPath id="SVGID_00000058559176751115556280000006502124256901516975_">
		<use xlink:href="#SVGID_1_"  style="overflow:visible;"/>
	</clipPath>
	
		<rect y="-0.2" style="clip-path:url(#SVGID_00000058559176751115556280000006502124256901516975_);fill:#595959;" width="1428.7" height="902.3"/>
	<path style="clip-path:url(#SVGID_00000058559176751115556280000006502124256901516975_);fill:#FFFA72;" d="M668.9,156.8
		c-28.7,61.7-23.3,100.4,16.3,116.1c59.3,23.5,200.3,32.9,259.3,83.9c59,51,238.7,11.6,269.4-76c30.7-87.5,86.1-222.4-205.8-222.4
		C813.6,58.4,700.5,91.2,668.9,156.8L668.9,156.8z"/>
	<path style="clip-path:url(#SVGID_00000058559176751115556280000006502124256901516975_);fill:#151515;" d="M246.7,276.4
		c19.4,173.4-18.1,390.2,117.9,434.2c204.1,66.1,140.5,21.8,388,165.1c247.5,143.3,1276.1-4.8,1220.7-250.7
		c-44.5-197.6-20.2-508.8-461.9-612.6C1403.3-13,1198.1,0,1037.5,0C492.7,0,229.1,92.1,246.7,276.4L246.7,276.4z"/>
	<path style="clip-path:url(#SVGID_00000058559176751115556280000006502124256901516975_);fill:#1A1A1A;" d="M278.3,268.5
		c9.1,163.6,36.2,328.6,162.6,370.1c189.6,62.3,166.2,58.4,392.8,193.5c208.2,88.5,1099.3-3,1060-234.9
		c-39.3-231.9-78.7-589.4-852.1-589.4C526,7.8,271.6,94.7,278.3,268.5L278.3,268.5z"/>
	<path style="clip-path:url(#SVGID_00000058559176751115556280000006502124256901516975_);fill:#1E1E1E;" d="M310.8,258.3
		C311,412.6,335.5,560,452.6,599.2C628.3,658,668.2,671.3,875,798.8c206.8,127.5,968.1-11.5,942.9-230.3
		c-25.2-218.8-44.1-556.1-773.7-556.1C557.8,12.4,313.3,94.4,310.8,258.3L310.8,258.3z"/>
	<path style="clip-path:url(#SVGID_00000058559176751115556280000006502124256901516975_);fill:#222222;" d="M344,248.2
		c-7.3,145.1,40.3,282.5,148.5,319.4c162.3,55.2,250.7,87.9,438.9,207.7c188.2,119.8,827.1-29.9,814.1-235.6
		C1732.6,334,1731.3,17,1045.5,17C588.2,17,354.4,94.1,344,248.2L344,248.2z"/>
	<path style="clip-path:url(#SVGID_00000058559176751115556280000006502124256901516975_);fill:#262626;" d="M377.9,238
		c-13.7,135.8,63.8,262,163.3,296.5c149.3,51.7,253.2,99.7,423.7,211.9c170.5,112.2,713.8-42.9,711.3-235.5
		c-2.5-192.5,11.3-489.3-630.8-489.3C617.4,21.6,394.9,93.7,377.9,238L377.9,238z"/>
	<path style="clip-path:url(#SVGID_00000058559176751115556280000006502124256901516975_);fill:#2B2B2B;" d="M412.4,231.1
		c-18.9,126.5,28.8,230,120,262.1c136.8,48.2,328.8,97.3,451.8,218.8c153.8,104.5,619.1-47.2,625.6-226.6
		c6.4-179.4,32.7-456-565.6-456C645.4,29.5,434.8,96.7,412.4,231.1L412.4,231.1z"/>
	<path style="clip-path:url(#SVGID_00000058559176751115556280000006502124256901516975_);fill:#2F2F2F;" d="M448.5,239.4
		c-23.1,117.3,6.9,190.8,90,220.6c124.7,44.7,349.8,108.4,487.8,205.3c138,96.9,517.3,10.1,520.9-190.2
		C1561,308.8,1597.5,52.5,1043,52.5C673.3,52.5,475.1,114.8,448.5,239.4L448.5,239.4z"/>
	<path style="clip-path:url(#SVGID_00000058559176751115556280000006502124256901516975_);fill:#333333;" d="M483.1,207.6
		c-26.3,108-1.8,175.7,73.5,203.2c112.9,41.1,330.5,96.5,453.5,185.7c319,171.8,455.1-18.6,474.9-171.8
		c19.8-153.2,64.4-389.2-446.4-389.2C698.1,35.4,513,92.8,483.1,207.6L483.1,207.6z"/>
	<path style="clip-path:url(#SVGID_00000058559176751115556280000006502124256901516975_);fill:#373737;" d="M519.3,197.4
		c-28.5,98.8-8.9,160.7,58.8,185.8c101.5,37.6,297.5,71.2,406.2,152.8c290.3,165.1,417.6,0,442.1-140c24.5-140,75-355.9-392-355.9
		C723,40,551.4,92.5,519.3,197.4L519.3,197.4z"/>
	<path style="clip-path:url(#SVGID_00000058559176751115556280000006502124256901516975_);fill:#3C3C3C;" d="M556,187.2
		c-29.8,89.5-14.6,145.6,45.8,168.3c90.5,34.1,287.3,59.6,382.5,133.6c231.9,139,357.8,4.9,385.7-122
		c27.9-126.9,82.4-322.5-340.8-322.5C747,44.6,589.3,92.2,556,187.2L556,187.2z"/>
	<path style="clip-path:url(#SVGID_00000058559176751115556280000006502124256901516975_);fill:#404040;" d="M593.2,177.1
		c-30.3,80.2-18.8,130.5,34.4,150.9c79.8,30.6,264.2,42.8,346.6,109.1c169.1,119.5,311.6,15,341.6-98.7
		c30-113.8,86.6-289.1-292.8-289.1C770,49.2,626.8,91.8,593.2,177.1L593.2,177.1z"/>
	<path style="clip-path:url(#SVGID_00000058559176751115556280000006502124256901516975_);fill:#444444;" d="M630.8,166.9
		c-29.9,71-21.7,115.5,24.5,133.5c69.4,27,232.1,37.8,302.4,96.5c70.4,58.6,275.1,13.3,306-87.3c31-100.7,87.8-255.8-247.8-255.8
		C792.2,53.8,663.8,91.5,630.8,166.9L630.8,166.9z"/>
</g>
</svg>
