<?xml version="1.0" encoding="utf-8"?>
<!-- Generator: Adobe Illustrator 27.1.1, SVG Export Plug-In . SVG Version: 6.00 Build 0)  -->
<svg version="1.1" id="Livello_1" xmlns="http://www.w3.org/2000/svg" xmlns:xlink="http://www.w3.org/1999/xlink" x="0px" y="0px"
	 viewBox="0 0 1428.7 902.3" style="enable-background:new 0 0 1428.7 902.3;" xml:space="preserve">
<style type="text/css">
	.st0{clip-path:url(#SVGID_00000088834336715033924570000014180707397955316116_);}
	.st1{clip-path:url(#SVGID_00000008865710019145490910000014731750778677126811_);fill:#595959;}
	.st2{clip-path:url(#SVGID_00000127030555981662022410000008884014018625177274_);fill:#595959;}
	.st3{clip-path:url(#SVGID_00000087405621480588448340000011342831813154608546_);fill:#595959;}
	.st4{clip-path:url(#SVGID_00000088834336715033924570000014180707397955316116_);fill:#FFFA72;}
	.st5{clip-path:url(#SVGID_00000088834336715033924570000014180707397955316116_);fill:#151515;}
	.st6{clip-path:url(#SVGID_00000088834336715033924570000014180707397955316116_);fill:#1A1A1A;}
	.st7{clip-path:url(#SVGID_00000088834336715033924570000014180707397955316116_);fill:#1E1E1E;}
	.st8{clip-path:url(#SVGID_00000088834336715033924570000014180707397955316116_);fill:#222222;}
	.st9{clip-path:url(#SVGID_00000088834336715033924570000014180707397955316116_);fill:#262626;}
	.st10{clip-path:url(#SVGID_00000088834336715033924570000014180707397955316116_);fill:#2B2B2B;}
	.st11{clip-path:url(#SVGID_00000088834336715033924570000014180707397955316116_);fill:#2F2F2F;}
	.st12{clip-path:url(#SVGID_00000088834336715033924570000014180707397955316116_);fill:#333333;}
	.st13{clip-path:url(#SVGID_00000088834336715033924570000014180707397955316116_);fill:#373737;}
	.st14{clip-path:url(#SVGID_00000088834336715033924570000014180707397955316116_);fill:#3C3C3C;}
	.st15{clip-path:url(#SVGID_00000088834336715033924570000014180707397955316116_);fill:#404040;}
	.st16{clip-path:url(#SVGID_00000088834336715033924570000014180707397955316116_);fill:#444444;}
	.st17{clip-path:url(#SVGID_00000065045224915797870600000006705807990458329266_);fill:#666666;}
	.st18{clip-path:url(#SVGID_00000065045224915797870600000006705807990458329266_);fill:#FFFA72;}
	.st19{clip-path:url(#SVGID_00000065045224915797870600000006705807990458329266_);fill:#151515;}
	.st20{clip-path:url(#SVGID_00000065045224915797870600000006705807990458329266_);fill:#1A1A1A;}
	.st21{clip-path:url(#SVGID_00000065045224915797870600000006705807990458329266_);fill:#1E1E1E;}
	.st22{clip-path:url(#SVGID_00000065045224915797870600000006705807990458329266_);fill:#222222;}
	.st23{clip-path:url(#SVGID_00000065045224915797870600000006705807990458329266_);fill:#262626;}
	.st24{clip-path:url(#SVGID_00000065045224915797870600000006705807990458329266_);fill:#2B2B2B;}
	.st25{clip-path:url(#SVGID_00000065045224915797870600000006705807990458329266_);fill:#2F2F2F;}
	.st26{clip-path:url(#SVGID_00000065045224915797870600000006705807990458329266_);fill:#333333;}
	.st27{clip-path:url(#SVGID_00000065045224915797870600000006705807990458329266_);fill:#373737;}
	.st28{clip-path:url(#SVGID_00000065045224915797870600000006705807990458329266_);fill:#3C3C3C;}
	.st29{clip-path:url(#SVGID_00000065045224915797870600000006705807990458329266_);fill:#404040;}
	.st30{clip-path:url(#SVGID_00000065045224915797870600000006705807990458329266_);fill:#444444;}
</style>
<g>
	<defs>
		<rect id="SVGID_1_" x="-5512.8" y="2262.9" width="1365" height="2308.5"/>
	</defs>
	<clipPath id="SVGID_00000019654916482769197240000017828368690294873755_">
		<use xlink:href="#SVGID_1_"  style="overflow:visible;"/>
	</clipPath>
	<g style="clip-path:url(#SVGID_00000019654916482769197240000017828368690294873755_);">
		<g>
			<defs>
				<rect id="SVGID_00000148659150859786635260000006531631782967158147_" x="-5512.8" y="2262.9" width="1366" height="769.5"/>
			</defs>
			<clipPath id="SVGID_00000145744661128567577130000014578436921896160173_">
				<use xlink:href="#SVGID_00000148659150859786635260000006531631782967158147_"  style="overflow:visible;"/>
			</clipPath>
			
				<rect x="-5512.8" y="2262.9" style="clip-path:url(#SVGID_00000145744661128567577130000014578436921896160173_);fill:#595959;" width="1366" height="769.5"/>
		</g>
	</g>
	<g style="clip-path:url(#SVGID_00000019654916482769197240000017828368690294873755_);">
		<g>
			<defs>
				<rect id="SVGID_00000101079930918062363050000003092995037470094770_" x="-5512.8" y="3032.4" width="1366" height="769.5"/>
			</defs>
			<clipPath id="SVGID_00000028323536310835391350000006060161191218165920_">
				<use xlink:href="#SVGID_00000101079930918062363050000003092995037470094770_"  style="overflow:visible;"/>
			</clipPath>
			
				<rect x="-5512.8" y="3032.4" style="clip-path:url(#SVGID_00000028323536310835391350000006060161191218165920_);fill:#595959;" width="1366" height="769.5"/>
		</g>
	</g>
	<g style="clip-path:url(#SVGID_00000019654916482769197240000017828368690294873755_);">
		<g>
			<defs>
				<rect id="SVGID_00000092456750716383556580000006727131796897161396_" x="-5513.8" y="3801.9" width="1366" height="769.5"/>
			</defs>
			<clipPath id="SVGID_00000020384240352923540150000007135237304750733973_">
				<use xlink:href="#SVGID_00000092456750716383556580000006727131796897161396_"  style="overflow:visible;"/>
			</clipPath>
			
				<rect x="-5513.8" y="3801.9" style="clip-path:url(#SVGID_00000020384240352923540150000007135237304750733973_);fill:#595959;" width="1366" height="769.5"/>
		</g>
	</g>
	<path style="clip-path:url(#SVGID_00000019654916482769197240000017828368690294873755_);fill:#FFFA72;" d="M-4909.7,2713.4
		c-23,54-18.6,87.8,13,101.6c47.4,20.6,160.2,28.8,207.4,73.4c47.2,44.6,190.9,10.1,215.5-66.4c24.6-76.6,68.9-194.6-164.6-194.6
		C-4794.1,2627.3-4884.4,2656-4909.7,2713.4L-4909.7,2713.4z"/>
	<path style="clip-path:url(#SVGID_00000019654916482769197240000017828368690294873755_);fill:#151515;" d="M-5247.4,2818.1
		c15.5,151.7-14.5,341.4,94.3,379.9c163.2,57.8,112.4,19.1,310.3,144.5c197.9,125.4,1510.5,191.9,976.3-219.4
		c-35.6-172.9,73.4-756.4-279.9-847.3c-86.4-22.2-465.8-9.2-594.2-9.2C-5176.4,2266.6-5261.5,2656.8-5247.4,2818.1L-5247.4,2818.1z"
		/>
	<path style="clip-path:url(#SVGID_00000019654916482769197240000017828368690294873755_);fill:#1A1A1A;" d="M-5239.6,2811.1
		c7.3,143.1,2.2,308.4,103.3,344.7c151.6,54.5,159.6,30.2,340.9,148.5c166.5,77.4,879.2-2.6,847.8-205.5
		c48.8-723.1-108.8-813.4-727.4-813.4C-5087.4,2285.4-5245,2659.1-5239.6,2811.1L-5239.6,2811.1z"/>
	<path style="clip-path:url(#SVGID_00000019654916482769197240000017828368690294873755_);fill:#1E1E1E;" d="M-5196.1,2802.2
		c0.2,135,19.8,264,113.4,298.3c140.5,51.4,172.4,63.1,337.8,174.6c165.4,111.6,774.3-10.1,754.1-201.5
		c-9.4-605.2-98.7-729.2-682.2-729.2C-5062,2344.4-5194.1,2658.8-5196.1,2802.2L-5196.1,2802.2z"/>
	<path style="clip-path:url(#SVGID_00000019654916482769197240000017828368690294873755_);fill:#222222;" d="M-5169.6,2793.3
		c-5.8,127,32.2,247.2,118.8,279.5c129.8,48.3,200.5,76.9,351,181.7s661.5-26.2,651.1-206.1c-14.2-411.5-60.3-654.7-608.9-654.7
		C-5023.2,2393.7-5161.2,2658.5-5169.6,2793.3L-5169.6,2793.3z"/>
	<path style="clip-path:url(#SVGID_00000019654916482769197240000017828368690294873755_);fill:#262626;" d="M-5142.5,2784.5
		c-11,118.8,51,229.2,130.6,259.4c119.4,45.2,202.5,87.2,338.9,185.4s570.9-37.5,568.9-206.1c0-255.5-39.9-577.8-553.4-577.8
		C-4999.9,2445.5-5128.9,2658.2-5142.5,2784.5L-5142.5,2784.5z"/>
	<path style="clip-path:url(#SVGID_00000019654916482769197240000017828368690294873755_);fill:#2B2B2B;" d="M-5114.9,2778.4
		c-15.1,110.7,23,201.2,96,229.3c109.4,42.2,263,85.1,361.3,191.4c123,91.4,495.1-41.3,500.3-198.3
		c7.4-173.8-21.8-506.1-500.3-506.1C-4976.5,2494.9-5096.9,2660.8-5114.9,2778.4L-5114.9,2778.4z"/>
	<path style="clip-path:url(#SVGID_00000019654916482769197240000017828368690294873755_);fill:#2F2F2F;" d="M-5086,2785.6
		c-18.5,102.6,5.5,166.9,72,193c99.7,39.1,279.8,94.8,390.1,179.6s413.7,8.8,416.6-166.4c11-145.5,27-456-416.6-456
		C-4919.6,2535.8-5064.7,2676.6-5086,2785.6L-5086,2785.6z"/>
	<path style="clip-path:url(#SVGID_00000019654916482769197240000017828368690294873755_);fill:#333333;" d="M-5058.3,2757.8
		c-21,94.5-1.4,153.7,58.8,177.8c90.3,36,264.3,84.4,362.7,162.5c255.1,150.3,364-16.3,379.8-150.3c15.8-134,41.6-377-366.9-377
		C-4896.2,2570.7-5034.4,2657.4-5058.3,2757.8L-5058.3,2757.8z"/>
	<path style="clip-path:url(#SVGID_00000019654916482769197240000017828368690294873755_);fill:#373737;" d="M-5029.4,2749
		c-22.8,86.4-7.1,140.6,47,162.6c81.2,32.9,237.9,62.3,324.9,133.7c232.2,144.5,334,0,353.6-122.5c19.6-122.5,53.5-321.7-320-321.7
		C-4872.8,2600.8-5003.7,2657.1-5029.4,2749L-5029.4,2749z"/>
	<path style="clip-path:url(#SVGID_00000019654916482769197240000017828368690294873755_);fill:#3C3C3C;" d="M-5000,2740
		c-23.8,78.3-11.7,127.4,36.6,147.3c72.4,29.8,229.8,52.1,305.9,116.9c185.5,121.6,286.2,4.3,308.5-106.7s65.9-282.2-272.6-282.2
		C-4847.3,2615.3-4973.4,2656.8-5000,2740L-5000,2740z"/>
	<path style="clip-path:url(#SVGID_00000019654916482769197240000017828368690294873755_);fill:#404040;" d="M-4970.3,2731.1
		c-24.2,70.2-15,114.2,27.5,132c63.8,26.8,211.3,37.4,277.2,95.5c135.2,104.6,249.2,13.1,273.2-86.4c24-99.6,69.3-253-234.2-253
		C-4828.9,2619.3-4943.4,2656.6-4970.3,2731.1L-4970.3,2731.1z"/>
	<path style="clip-path:url(#SVGID_00000019654916482769197240000017828368690294873755_);fill:#444444;" d="M-4940.2,2722.3
		c-23.9,62.1-17.4,101.1,19.6,116.8c55.5,23.6,185.6,33.1,241.9,84.4c56.3,51.3,220,11.6,244.7-76.4
		c24.8-88.1,70.2-223.8-198.2-223.8C-4811.1,2623.3-4913.8,2656.3-4940.2,2722.3L-4940.2,2722.3z"/>
	<path style="clip-path:url(#SVGID_00000019654916482769197240000017828368690294873755_);fill:#FFFA72;" d="M-5184.4,4112.6
		c33.2,52.3,126.6,65.2,280.3,38.6c230.5-40,169.9-148.9,134.7-220.4c-35.3-71.4-182.2-80.8-222.3-28.8
		c-40.1,52.1-150.4,79.5-194.3,108C-5215.3,4029.1-5214.8,4063.2-5184.4,4112.6L-5184.4,4112.6z"/>
	<path style="clip-path:url(#SVGID_00000019654916482769197240000017828368690294873755_);fill:#151515;" d="M-5532.9,4067.1
		c-189.2,597.1,229.9,643,660.3,568.4c126.8-22,364.4-221.7,426.9-286.7c263-273.5,250.1-588.4,303.1-814.3
		c339.7-177.6-888-212.2-1065.6-54.5c-177.6,157.7-132.8,110.8-285.8,195.8C-5596,3732.3-5539.2,3914.5-5532.9,4067.1
		L-5532.9,4067.1z"/>
	<path style="clip-path:url(#SVGID_00000019654916482769197240000017828368690294873755_);fill:#1A1A1A;" d="M-5506.8,4069.6
		c-59.1,365.1,83.8,577.2,491.1,506.7c610.9-105.9,750.4-616.3,743.8-1011.9c2-205.9-713.4-162.9-866.8-58
		c-162,147.8-173.5,125.2-315.4,205C-5548.7,3764.6-5520.1,3927-5506.8,4069.6L-5506.8,4069.6z"/>
	<path style="clip-path:url(#SVGID_00000019654916482769197240000017828368690294873755_);fill:#1E1E1E;" d="M-5480,4073.9
		c22.5,141.3,16.2,495.5,400.4,428.9c576.4-99.8,784.5-569.4,751.3-903.3c-7.5-192.5-626.2-208.5-773.7-70
		c-147.4,138.5-177.2,155.5-308.6,230.3C-5498.2,3809.8-5499.1,3940.5-5480,4073.9L-5480,4073.9z"/>
	<path style="clip-path:url(#SVGID_00000019654916482769197240000017828368690294873755_);fill:#222222;" d="M-5452.4,4078.1
		c27.5,131.8,51.3,417.5,412.5,354.9c541.8-93.9,703.1-564,658.1-798.7c-15.4-179.5-538.9-221.5-672.5-92.1
		s-199.4,169.7-320.7,239.7C-5455.9,3828.4-5476.4,3953.7-5452.4,4078.1L-5452.4,4078.1z"/>
	<path style="clip-path:url(#SVGID_00000019654916482769197240000017828368690294873755_);fill:#262626;" d="M-5424.4,4082.3
		c31.4,122.3,87.1,328.7,425.2,270.1c507.2-87.8,563.4-377.6,566.2-683.7c-22.2-166.8-470.7-226.4-591.4-106.1
		c-120.8,120.3-196.7,176-308.2,241.1C-5406.8,3847.1-5452.2,3966.8-5424.4,4082.3L-5424.4,4082.3z"/>
	<path style="clip-path:url(#SVGID_00000019654916482769197240000017828368690294873755_);fill:#2B2B2B;" d="M-5396.3,4083.5
		c34.5,113.1,109.9,241.6,425,187c472.6-81.9,528.9-391.2,489.1-570.7c-27.5-154.2-414.1-221.6-522.5-110.2
		c-82,121.7-227.5,190.5-329.5,250.9C-5402.3,3880.8-5427.1,3976.8-5396.3,4083.5L-5396.3,4083.5z"/>
	<path style="clip-path:url(#SVGID_00000019654916482769197240000017828368690294873755_);fill:#2F2F2F;" d="M-5368.8,4071.4
		c36.6,104,144,194.3,436,143.7c438-75.9,451.9-297.9,402.4-497.8c-27.9-172.5-338.4-195.6-435.2-93
		c-96.9,102.6-266.8,188.5-359.7,244.1C-5387.3,3905.6-5401.7,3973.3-5368.8,4071.4L-5368.8,4071.4z"/>
	<path style="clip-path:url(#SVGID_00000019654916482769197240000017828368690294873755_);fill:#333333;" d="M-5337.4,4094.2
		c37.9,95.1,178.2,142.4,447.2,95.7c403.5-69.9,359.8-289.3,317-420.5c-34.9-129.7-166.1-275.6-396.6-83.5
		c-86,94-251,171.6-335,222.6C-5360.8,3942.5-5371.7,4004.4-5337.4,4094.2L-5337.4,4094.2z"/>
	<path style="clip-path:url(#SVGID_00000019654916482769197240000017828368690294873755_);fill:#373737;" d="M-5307.6,4098
		c38.5,86.3,180.6,108.1,426.5,65.5c368.9-64,302-243.5,265.1-361.2s-158-243-366.7-60.6c-75.7,85.4-226.3,141.2-301.8,187.6
		C-5334.7,3960.4-5342.5,4016.6-5307.6,4098L-5307.6,4098z"/>
	<path style="clip-path:url(#SVGID_00000019654916482769197240000017828368690294873755_);fill:#3C3C3C;" d="M-5277.4,4101.8
		c38.1,77.6,168.7,97.1,391.6,58.5c334.3-58,266.8-219.5,228.9-325.4c-37.9-105.9-154.1-204.5-319.9-52.7
		c-66,76.9-218.3,125.9-285.4,167.7C-5307,3977.9-5312.1,4028.5-5277.4,4101.8L-5277.4,4101.8z"/>
	<path style="clip-path:url(#SVGID_00000019654916482769197240000017828368690294873755_);fill:#404040;" d="M-5246.7,4105.5
		c37.2,69.1,155.7,86.3,355.5,51.7c299.7-52,233.1-195.7,195.1-290c-37.9-94.2-163.6-165-282.2-38.6
		c-56.9,68.6-201,104.4-260.2,141.7C-5277.9,3995.2-5280.7,4040.3-5246.7,4105.5L-5246.7,4105.5z"/>
	<path style="clip-path:url(#SVGID_00000019654916482769197240000017828368690294873755_);fill:#444444;" d="M-5215.7,4109.1
		c35.5,60.6,141.6,75.7,318.4,45.1c265.1-45.9,200.8-172.2,163.7-255c-37-82.8-204.4-93.9-252.6-33.6
		c-48.2,60.3-175.4,92-226.8,124.8C-5247.3,4012.3-5248.3,4051.8-5215.7,4109.1L-5215.7,4109.1z"/>
</g>
<g>
	<defs>
		<rect id="SVGID_00000017487268703954374880000013108542781667098243_" x="378.8" y="2703.2" width="1365" height="2308.5"/>
	</defs>
	<clipPath id="SVGID_00000009554554870219933830000015502334182970563224_">
		<use xlink:href="#SVGID_00000017487268703954374880000013108542781667098243_"  style="overflow:visible;"/>
	</clipPath>
	
		<rect x="378.8" y="2703.2" style="clip-path:url(#SVGID_00000009554554870219933830000015502334182970563224_);fill:#666666;" width="1365" height="2308.5"/>
	<path style="clip-path:url(#SVGID_00000009554554870219933830000015502334182970563224_);fill:#FFFA72;" d="M983.1,3153.7
		c-23,54-18.6,87.8,13,101.6c47.4,20.6,160.2,28.8,207.4,73.4s190.9,10.1,215.5-66.4c24.6-76.6,68.9-194.6-164.6-194.6
		C1098.7,3067.6,1008.4,3096.3,983.1,3153.7L983.1,3153.7z"/>
	<path style="clip-path:url(#SVGID_00000009554554870219933830000015502334182970563224_);fill:#151515;" d="M645.4,3258.4
		c15.5,151.7-14.5,341.4,94.3,379.9c163.2,57.8,112.4,19.1,310.3,144.5c197.9,125.4,1510.5,191.9,976.3-219.4
		c-35.6-172.9,73.4-756.4-279.9-847.3c-86.4-22.2-465.8-9.2-594.2-9.2C716.5,2706.9,631.4,3097.1,645.4,3258.4L645.4,3258.4z"/>
	<path style="clip-path:url(#SVGID_00000009554554870219933830000015502334182970563224_);fill:#1A1A1A;" d="M653.2,3251.4
		c7.3,143.1,2.2,308.4,103.3,344.7c151.6,54.5,159.6,30.2,340.9,148.5c166.5,77.4,879.2-2.6,847.8-205.5
		c48.8-723.1-108.8-813.4-727.4-813.4C805.4,2725.7,647.8,3099.4,653.2,3251.4L653.2,3251.4z"/>
	<path style="clip-path:url(#SVGID_00000009554554870219933830000015502334182970563224_);fill:#1E1E1E;" d="M696.7,3242.6
		c0.2,135,19.8,264,113.4,298.3c140.5,51.4,172.4,63.1,337.8,174.6c165.4,111.6,774.3-10.1,754.1-201.5
		c-9.4-605.2-98.7-729.2-682.2-729.2C830.8,2784.7,698.7,3099.1,696.7,3242.6L696.7,3242.6z"/>
	<path style="clip-path:url(#SVGID_00000009554554870219933830000015502334182970563224_);fill:#222222;" d="M723.3,3233.6
		c-5.8,127,32.2,247.2,118.8,279.5c129.8,48.3,200.5,76.9,351,181.7c150.5,104.8,661.5-26.2,651.1-206.1
		c-14.2-411.5-60.3-654.7-608.9-654.7C869.6,2834,731.6,3098.8,723.3,3233.6L723.3,3233.6z"/>
	<path style="clip-path:url(#SVGID_00000009554554870219933830000015502334182970563224_);fill:#262626;" d="M750.4,3224.8
		c-11,118.8,51,229.2,130.6,259.4c119.4,45.2,202.5,87.2,338.9,185.4s570.9-37.5,568.9-206.1c0-255.5-39.9-577.8-553.4-577.8
		C893,2885.8,764,3098.5,750.4,3224.8L750.4,3224.8z"/>
	<path style="clip-path:url(#SVGID_00000009554554870219933830000015502334182970563224_);fill:#2B2B2B;" d="M778,3218.8
		c-15.1,110.7,23,201.2,96,229.3c109.4,42.2,263,85.1,361.3,191.4c123,91.4,495.1-41.3,500.3-198.3
		c7.4-173.8-21.8-506.1-500.3-506.1C916.3,2935.2,795.9,3101.1,778,3218.8L778,3218.8z"/>
	<path style="clip-path:url(#SVGID_00000009554554870219933830000015502334182970563224_);fill:#2F2F2F;" d="M806.8,3225.9
		c-18.5,102.6,5.5,166.9,72,193c99.7,39.1,279.8,94.8,390.1,179.6c110.4,84.8,413.7,8.8,416.6-166.4c11-145.5,27-456-416.6-456
		C973.3,2976.1,828.1,3116.9,806.8,3225.9L806.8,3225.9z"/>
	<path style="clip-path:url(#SVGID_00000009554554870219933830000015502334182970563224_);fill:#333333;" d="M834.5,3198.1
		c-21,94.5-1.4,153.7,58.8,177.8c90.3,36,264.3,84.4,362.7,162.5c255.1,150.3,364-16.3,379.8-150.3c15.8-134,41.6-377-366.9-377
		C996.6,3011,858.4,3097.7,834.5,3198.1L834.5,3198.1z"/>
	<path style="clip-path:url(#SVGID_00000009554554870219933830000015502334182970563224_);fill:#373737;" d="M863.5,3189.3
		c-22.8,86.4-7.1,140.6,47,162.6c81.2,32.9,237.9,62.3,324.9,133.7c232.2,144.5,334,0,353.6-122.5c19.6-122.5,53.5-321.7-320-321.7
		C1020,3041.1,889.1,3097.4,863.5,3189.3L863.5,3189.3z"/>
	<path style="clip-path:url(#SVGID_00000009554554870219933830000015502334182970563224_);fill:#3C3C3C;" d="M892.8,3180.3
		c-23.8,78.3-11.7,127.4,36.6,147.3c72.4,29.8,229.8,52.1,305.9,116.9c185.5,121.6,286.2,4.3,308.5-106.7
		c22.3-111,65.9-282.2-272.6-282.2C1045.6,3055.6,919.4,3097.1,892.8,3180.3L892.8,3180.3z"/>
	<path style="clip-path:url(#SVGID_00000009554554870219933830000015502334182970563224_);fill:#404040;" d="M922.6,3171.4
		c-24.2,70.2-15,114.2,27.5,132c63.8,26.8,211.3,37.4,277.2,95.5c135.2,104.6,249.2,13.1,273.2-86.4c24-99.6,69.3-253-234.2-253
		C1064,3059.6,949.4,3096.9,922.6,3171.4L922.6,3171.4z"/>
	<path style="clip-path:url(#SVGID_00000009554554870219933830000015502334182970563224_);fill:#444444;" d="M952.6,3162.6
		c-23.9,62.1-17.4,101.1,19.6,116.8c55.5,23.6,185.6,33.1,241.9,84.4c56.3,51.3,220,11.6,244.7-76.4
		c24.8-88.1,70.2-223.8-198.2-223.8C1081.7,3063.6,979,3096.6,952.6,3162.6L952.6,3162.6z"/>
	<path style="clip-path:url(#SVGID_00000009554554870219933830000015502334182970563224_);fill:#FFFA72;" d="M708.5,4552.9
		c33.2,52.3,126.6,65.2,280.3,38.6c230.5-40,169.9-148.9,134.7-220.4c-35.3-71.4-182.2-80.9-222.3-28.8
		c-40.1,52.1-150.4,79.5-194.3,108C677.5,4469.4,678.1,4503.5,708.5,4552.9L708.5,4552.9z"/>
	<path style="clip-path:url(#SVGID_00000009554554870219933830000015502334182970563224_);fill:#151515;" d="M359.9,4507.4
		c-189.2,597.1,229.9,643,660.3,568.4c126.8-22,364.4-221.7,426.9-286.7c263-273.5,250.1-588.4,303.1-814.3
		c339.7-177.6-888-212.2-1065.6-54.5c-177.6,157.7-132.8,110.8-285.8,195.8C296.8,4172.6,353.6,4354.8,359.9,4507.4L359.9,4507.4z"
		/>
	<path style="clip-path:url(#SVGID_00000009554554870219933830000015502334182970563224_);fill:#1A1A1A;" d="M386,4509.9
		c-59.1,365.1,83.8,577.2,491.1,506.7c610.9-105.9,750.4-616.3,743.8-1011.9c2-205.9-713.4-162.9-866.8-58
		c-162,147.8-173.5,125.2-315.4,205C344.1,4204.9,372.7,4367.3,386,4509.9L386,4509.9z"/>
	<path style="clip-path:url(#SVGID_00000009554554870219933830000015502334182970563224_);fill:#1E1E1E;" d="M412.9,4514.2
		c22.5,141.3,16.2,495.5,400.4,428.9c576.4-99.8,784.5-569.4,751.3-903.3c-7.5-192.5-626.2-208.5-773.7-70
		c-147.4,138.5-177.2,155.5-308.6,230.3C394.6,4250.1,393.7,4380.8,412.9,4514.2L412.9,4514.2z"/>
	<path style="clip-path:url(#SVGID_00000009554554870219933830000015502334182970563224_);fill:#222222;" d="M440.4,4518.4
		c27.5,131.8,51.3,417.5,412.5,354.9c541.8-93.9,703.1-564,658.1-798.7c-15.4-179.5-538.9-221.5-672.5-92.1S639,4152.1,517.7,4222.1
		C436.9,4268.7,416.5,4394,440.4,4518.4L440.4,4518.4z"/>
	<path style="clip-path:url(#SVGID_00000009554554870219933830000015502334182970563224_);fill:#262626;" d="M468.4,4522.6
		c31.4,122.3,87.1,328.7,425.2,270.1c507.2-87.9,563.4-377.6,566.2-683.7c-22.2-166.8-470.7-226.4-591.4-106.1
		c-120.8,120.3-196.7,176-308.2,241.1C486,4287.4,440.6,4407.1,468.4,4522.6L468.4,4522.6z"/>
	<path style="clip-path:url(#SVGID_00000009554554870219933830000015502334182970563224_);fill:#2B2B2B;" d="M496.5,4523.8
		c34.5,113.1,109.9,241.6,425,187c472.6-81.9,528.9-391.2,489.1-570.7c-27.5-154.2-414.1-221.6-522.5-110.2
		c-82,121.7-227.5,190.5-329.5,250.9C490.5,4321.1,465.7,4417.1,496.5,4523.8L496.5,4523.8z"/>
	<path style="clip-path:url(#SVGID_00000009554554870219933830000015502334182970563224_);fill:#2F2F2F;" d="M524,4511.7
		c36.6,104,144,194.3,436,143.7c438-75.9,451.9-297.9,402.4-497.8c-27.9-172.5-338.4-195.6-435.2-93
		c-96.9,102.6-266.8,188.5-359.7,244.1C505.6,4345.9,491.1,4413.6,524,4511.7L524,4511.7z"/>
	<path style="clip-path:url(#SVGID_00000009554554870219933830000015502334182970563224_);fill:#333333;" d="M555.4,4534.5
		c37.9,95.1,178.2,142.4,447.2,95.7c403.5-69.9,359.8-289.3,317-420.5c-34.9-129.7-166.1-275.6-396.6-83.5
		c-86,94-251,171.6-335,222.6C532,4382.8,521.1,4444.7,555.4,4534.5L555.4,4534.5z"/>
	<path style="clip-path:url(#SVGID_00000009554554870219933830000015502334182970563224_);fill:#373737;" d="M585.2,4538.3
		c38.5,86.3,180.6,108.1,426.5,65.5c368.9-64,302-243.5,265.1-361.2c-36.9-117.7-158-243-366.7-60.6
		c-75.7,85.4-226.3,141.2-301.8,187.6C558.1,4400.7,550.3,4456.9,585.2,4538.3L585.2,4538.3z"/>
	<path style="clip-path:url(#SVGID_00000009554554870219933830000015502334182970563224_);fill:#3C3C3C;" d="M615.4,4542.1
		c38.1,77.6,168.7,97.1,391.6,58.5c334.3-58,266.8-219.5,228.9-325.4c-37.9-105.9-154.1-204.5-319.9-52.7
		c-66,76.9-218.3,125.9-285.4,167.7C585.8,4418.2,580.7,4468.8,615.4,4542.1L615.4,4542.1z"/>
	<path style="clip-path:url(#SVGID_00000009554554870219933830000015502334182970563224_);fill:#404040;" d="M646.1,4545.8
		c37.2,69.1,155.7,86.3,355.5,51.7c299.7-52,233.1-195.7,195.1-290c-37.9-94.2-163.6-165-282.2-38.6
		c-56.9,68.6-201,104.4-260.2,141.7C614.9,4435.5,612.2,4480.6,646.1,4545.8L646.1,4545.8z"/>
	<path style="clip-path:url(#SVGID_00000009554554870219933830000015502334182970563224_);fill:#444444;" d="M677.1,4549.4
		c35.5,60.6,141.6,75.7,318.4,45.1c265.1-45.9,200.8-172.2,163.7-255c-37-82.8-204.4-93.9-252.6-33.6
		c-48.2,60.3-175.4,92-226.8,124.8C645.5,4452.6,644.6,4492.1,677.1,4549.4L677.1,4549.4z"/>
</g>
</svg>
